<svg width="100" height="100" viewBox="0 0 100 100" fill="none" xmlns="http://www.w3.org/2000/svg">
<path d="M28.451 16.158C30.3755 -0.356781 52.6729 -4.27437 60.15 10.5886C63.5445 17.3363 71.052 20.9848 78.4782 19.4959C94.8357 16.2164 105.465 36.1361 93.5896 47.8147C88.1981 53.1167 87.0356 61.3587 90.7516 67.9361C98.9365 82.424 83.2085 98.6527 68.3919 91.0075C61.6652 87.5367 53.4393 88.9819 48.3096 94.5359C37.0107 106.769 16.6608 96.8796 19.3793 80.476C20.6134 73.0289 16.692 65.6801 9.80578 62.5353C-5.36231 55.6081 -2.21124 33.2672 14.2855 30.7744C21.7749 29.6427 27.5773 23.6556 28.451 16.158Z" fill="white"/>
<path d="M15.8548 30.9172C24.01 29.6849 30.3337 23.1642 31.2861 14.9913C33.0374 -0.037042 53.3436 -3.61771 60.1552 9.92234C63.8544 17.2757 72.0325 21.2475 80.1183 19.6263C95.0327 16.6361 104.682 34.785 93.883 45.4049C88.0085 51.1819 86.7407 60.1648 90.7908 67.3336C98.2315 80.5041 83.9377 95.3066 70.4249 88.3342C63.0997 84.5545 54.1411 86.1274 48.5529 92.1778C38.2522 103.331 19.7323 94.2976 22.2043 79.3809C23.5497 71.2626 19.2742 63.2557 11.7741 59.8305C-2.03139 53.5256 0.826651 33.1881 15.8548 30.9172Z" fill="white" stroke="black" stroke-width="3"/>
<ellipse cx="52.7971" cy="47.9171" rx="22.5312" ry="22.4507" fill="#FFD037"/>
<path d="M72.483 48.5873C72.483 60.153 63.0721 69.538 51.4518 69.538C39.8316 69.538 30.4207 60.153 30.4207 48.5873C30.4207 37.0216 39.8316 27.6366 51.4518 27.6366C63.0721 27.6366 72.483 37.0216 72.483 48.5873Z" fill="#FFD037" stroke="black" stroke-width="3"/>
<path d="M54.2082 32.6828C50.7645 32.2012 47.4163 32.7744 44.4925 34.1552M36.4409 42.0411C37.1685 40.5714 38.0985 39.2299 39.1902 38.0473" stroke="black" stroke-width="3" stroke-linecap="round"/>
</svg>
